<svg xmlns="http://www.w3.org/2000/svg" viewBox="0 0 24 24" fill="currentColor">
  <!-- Barbarian: Double-headed battleaxe -->
  <path d="M12 1.5v21M10.5 15h3v7.5h-3z" stroke="currentColor" stroke-width="0" />
  <path d="M12 3L6.5 1C4.5 3 4 6 4.5 8.5 5 11 6.5 12.5 8.5 13.5L12 15l3.5-1.5c2-1 3.5-2.5 4-5C20 6 19.5 3 17.5 1L12 3z"/>
  <path d="M6.5 1C4 2.5 3 5.5 3.5 8.5c.4 2 1.5 3.8 3.2 4.8L12 16l5.3-2.7c1.7-1 2.8-2.8 3.2-4.8.5-3-.5-6-3-7.5L12 3 6.5 1z" opacity="0.15"/>
  <rect x="10.75" y="15" width="2.5" height="7" rx="0.75"/>
</svg>
