<svg xmlns="http://www.w3.org/2000/svg" viewBox="0 0 24 24" fill="currentColor">
  <!-- Bard: Lyre / Harp -->
  <path d="M8 21V9c0-3.3 2.7-6 6-6h0c1.7 0 3 1.3 3 3v1"/>
  <path d="M7 22a1 1 0 0 1-1-1V9a7 7 0 0 1 7-7c2.2 0 4 1.8 4 4v2h-1V6c0-1.7-1.3-3-3-3a6 6 0 0 0-6 6v12a1 1 0 0 1-1 1H7z"/>
  <path d="M17 8c0 4-2 7-4.5 9.5L9 21"/>
  <path d="M16 6c1.1 0 2 .9 2 2 0 4.2-2.1 7.5-4.8 10.2l-1.4 1.4-.7-.7 1.4-1.4C15 15 17 12 17 8c0-.6-.4-1-1-1v-1z"/>
  <line x1="9" y1="10" x2="15" y2="8" stroke="currentColor" stroke-width="0.75" opacity="0.6"/>
  <line x1="9" y1="13" x2="14.5" y2="10.5" stroke="currentColor" stroke-width="0.75" opacity="0.6"/>
  <line x1="9" y1="16" x2="13.5" y2="13.5" stroke="currentColor" stroke-width="0.75" opacity="0.6"/>
</svg>
