<svg xmlns="http://www.w3.org/2000/svg" viewBox="0 0 24 24" fill="currentColor">
  <!-- Fighter: Crossed swords -->
  <path d="M3.5 20.5l7-7M10.5 13.5l-3 3" stroke="currentColor" stroke-width="0"/>
  <path d="M14.5 2L4 12.5l1.8 1.8L16.3 3.8 14.5 2z"/>
  <path d="M4 12.5l-.7.7 2.5 2.5.7-.7-2.5-2.5z"/>
  <path d="M2.3 14.2l1 3.2 2.2-2.2-1-1-2.2 0z" opacity="0.8"/>
  <path d="M9.5 2L20 12.5l-1.8 1.8L7.7 3.8 9.5 2z"/>
  <path d="M20 12.5l.7.7-2.5 2.5-.7-.7 2.5-2.5z"/>
  <path d="M21.7 14.2l-1 3.2-2.2-2.2 1-1 2.2 0z" opacity="0.8"/>
</svg>
