<svg xmlns="http://www.w3.org/2000/svg" viewBox="0 0 24 24" fill="currentColor">
  <!-- Wizard: Open spellbook with arcane energy -->
  <path d="M2 4c0-1 1-2 3-2 3 0 5 1 7 3 2-2 4-3 7-3 2 0 3 1 3 2v14c0 1-1 1.5-2 1.5-2.5 0-4.5 1-6 2.5h-4c-1.5-1.5-3.5-2.5-6-2.5-1 0-2-.5-2-1.5V4z"/>
  <path d="M12 5v16" stroke="currentColor" stroke-width="0.5" opacity="0.3"/>
  <path d="M3 4.5c2.5 0 5 .8 7 2.5v13c-2-1.5-4.5-2.5-7-2.5V4.5z" opacity="0.2"/>
  <path d="M21 4.5c-2.5 0-5 .8-7 2.5v13c2-1.5 4.5-2.5 7-2.5V4.5z" opacity="0.2"/>
  <!-- Page lines -->
  <line x1="5" y1="8" x2="10" y2="8" stroke="currentColor" stroke-width="0.6" opacity="0.2"/>
  <line x1="5" y1="10.5" x2="10" y2="10.5" stroke="currentColor" stroke-width="0.6" opacity="0.2"/>
  <line x1="5" y1="13" x2="10" y2="13" stroke="currentColor" stroke-width="0.6" opacity="0.2"/>
  <line x1="14" y1="8" x2="19" y2="8" stroke="currentColor" stroke-width="0.6" opacity="0.2"/>
  <line x1="14" y1="10.5" x2="19" y2="10.5" stroke="currentColor" stroke-width="0.6" opacity="0.2"/>
  <line x1="14" y1="13" x2="19" y2="13" stroke="currentColor" stroke-width="0.6" opacity="0.2"/>
</svg>
