<svg xmlns="http://www.w3.org/2000/svg" fill="currentColor" viewBox="0 0 24 24"><path d="M2 4c0-1 1-2 3-2 3 0 5 1 7 3 2-2 4-3 7-3 2 0 3 1 3 2v14c0 1-1 1.5-2 1.5-2.5 0-4.5 1-6 2.5h-4c-1.5-1.5-3.5-2.5-6-2.5-1 0-2-.5-2-1.5z"/><path stroke="currentColor" stroke-width=".5" d="M12 5v16" opacity=".3"/><path d="M3 4.5c2.5 0 5 .8 7 2.5v13c-2-1.5-4.5-2.5-7-2.5zm18 0c-2.5 0-5 .8-7 2.5v13c2-1.5 4.5-2.5 7-2.5z" opacity=".2"/><path stroke="currentColor" stroke-width=".6" d="M5 8h5m-5 2.5h5M5 13h5m4-5h5m-5 2.5h5M14 13h5" opacity=".2"/></svg>