<?xml version="1.0" standalone="no"?>
<!DOCTYPE svg PUBLIC "-//W3C//DTD SVG 20010904//EN"
 "http://www.w3.org/TR/2001/REC-SVG-20010904/DTD/svg10.dtd">
<svg version="1.0" xmlns="http://www.w3.org/2000/svg"
 width="600.000000pt" height="600.000000pt" viewBox="0 0 600.000000 600.000000"
 preserveAspectRatio="xMidYMid meet">

<g transform="translate(0.000000,600.000000) scale(0.100000,-0.100000)"
fill="#000000" stroke="none">
<path d="M3430 5821 c-68 -37 -113 -39 -174 -6 -26 14 -59 25 -74 25 -33 0
-266 -140 -254 -152 5 -5 37 0 73 12 113 35 186 21 302 -59 39 -27 48 -41 87
-138 100 -252 180 -518 215 -709 25 -138 30 -386 11 -530 -26 -197 -99 -413
-218 -646 -67 -132 -190 -342 -219 -374 -52 -56 -2 -21 164 118 218 183 394
336 539 471 127 117 153 161 168 285 27 213 -44 513 -195 820 -193 396 -404
649 -631 760 -81 40 -103 44 -163 28 -28 -7 -51 -11 -51 -9 0 10 89 43 118 43
74 0 291 -139 428 -275 223 -222 417 -611 502 -1005 23 -110 26 -148 27 -310
0 -182 0 -186 -27 -230 -28 -49 -79 -99 -265 -263 -67 -59 -217 -200 -334
-313 -312 -301 -394 -363 -534 -399 -33 -8 -80 -30 -105 -48 -66 -47 -100 -44
-247 26 -160 75 -195 87 -260 87 -67 0 -108 -17 -156 -66 -70 -70 -107 -169
-107 -284 0 -124 38 -221 129 -330 40 -47 41 -51 13 -27 -56 46 -103 108 -141
187 -35 73 -36 79 -36 190 0 108 2 119 32 182 60 126 153 186 277 176 34 -3
121 -25 196 -51 74 -25 144 -48 155 -52 11 -3 8 1 -7 10 -32 18 -36 42 -11 52
20 8 185 -24 193 -37 3 -5 17 1 31 13 14 12 19 18 12 13 -23 -15 -61 3 -122
62 -66 63 -81 104 -65 171 12 47 46 51 55 6 l6 -30 20 46 c12 25 29 78 38 118
20 82 46 123 65 104 19 -18 23 -94 7 -145 -8 -27 -13 -48 -11 -48 2 0 16 24
31 53 26 50 28 60 33 232 5 186 12 218 49 228 52 13 110 -87 112 -193 0 -56 2
-61 11 -40 6 14 11 63 11 110 0 69 -5 99 -28 160 -72 192 -78 215 -72 243 4
15 13 27 21 27 36 0 98 -82 127 -170 6 -17 8 -6 5 34 -6 78 -48 161 -127 251
-70 80 -92 117 -87 148 8 56 133 -8 178 -91 19 -36 20 -36 14 -7 -13 66 -57
118 -156 185 -53 36 -106 74 -117 84 -24 22 -28 54 -6 62 19 8 78 -12 110 -38
14 -11 28 -18 31 -15 12 11 -111 96 -175 121 -92 36 -109 49 -92 70 24 28 109
21 226 -18 11 -4 0 4 -25 18 -102 57 -166 65 -415 53 -56 -3 -60 28 -9 73 48
41 88 58 194 80 l85 18 -95 1 c-115 1 -142 -6 -293 -76 -127 -58 -170 -65
-175 -26 -4 26 51 66 131 95 l52 19 -53 -5 c-71 -7 -153 -46 -269 -127 -53
-37 -100 -66 -105 -63 -12 8 18 59 56 96 19 18 72 55 117 82 151 87 223 140
310 227 103 102 152 192 170 306 15 103 9 132 -14 64 -28 -82 -73 -167 -114
-212 -20 -22 -81 -67 -135 -100 -54 -34 -98 -63 -98 -66 0 -2 15 4 33 15 17
11 57 34 87 52 82 48 137 96 166 146 15 25 28 43 31 40 14 -14 -72 -125 -130
-167 -22 -16 -36 -29 -31 -29 5 -1 -25 -19 -66 -41 -41 -22 -66 -37 -55 -33
151 51 130 31 -45 -41 -77 -31 -143 -61 -146 -66 -3 -5 16 -10 43 -10 45 -2
44 -2 -27 -14 l-75 -12 53 -2 c66 -1 60 -16 -10 -25 -29 -4 -78 -19 -108 -34
l-55 -27 35 -5 35 -6 -36 -7 c-20 -4 -47 -19 -60 -33 l-24 -25 30 15 c17 9 39
16 50 16 14 -1 8 -7 -19 -20 -56 -28 -62 -34 -129 -144 -55 -91 -196 -256
-219 -256 -5 0 33 55 85 123 51 68 120 168 152 223 63 109 116 169 188 216 56
36 64 50 10 17 -75 -45 -116 -83 -169 -159 -63 -91 -80 -108 -95 -93 -15 15
-3 46 39 101 l36 47 -71 -62 c-39 -35 -76 -69 -83 -78 -20 -24 -30 -17 -19 12
23 61 46 103 123 223 104 162 119 203 114 300 -5 77 -19 117 -66 178 -33 43
-37 36 -12 -20 11 -25 23 -77 26 -116 9 -93 -6 -123 -141 -277 -128 -145 -174
-212 -255 -372 -34 -68 -66 -123 -70 -123 -5 0 -10 21 -12 48 l-4 47 -17 -38
c-10 -20 -23 -66 -31 -102 -9 -42 -26 -84 -50 -117 -24 -36 -40 -76 -50 -124
-9 -40 -23 -87 -32 -106 -15 -33 -15 -37 6 -77 14 -29 19 -52 15 -71 -9 -41
-74 -137 -129 -190 -32 -31 -46 -52 -46 -71 0 -30 40 -84 68 -93 9 -3 30 -27
46 -53 17 -25 32 -41 34 -35 2 7 23 12 48 12 45 0 45 1 69 53 28 60 32 59 10
-4 -18 -50 -28 -59 -72 -59 -41 0 -48 -12 -24 -41 l19 -24 -5 28 -5 28 57 -26
c69 -30 73 -31 50 -5 -11 12 -13 20 -6 20 7 0 10 4 7 8 -3 5 2 32 11 60 12 36
22 51 32 50 9 -2 17 6 19 17 7 38 44 67 79 63 26 -3 33 0 33 13 0 40 89 114
129 107 9 -2 39 16 66 40 27 23 59 45 71 48 20 5 24 13 27 62 l3 57 2 -60 2
-61 -36 -13 c-20 -7 -53 -31 -74 -52 -30 -31 -45 -39 -73 -39 -28 0 -42 -8
-71 -40 -20 -23 -36 -51 -36 -64 0 -23 -2 -24 -29 -13 -23 9 -34 7 -55 -6 -23
-15 -26 -24 -25 -70 0 -45 2 -48 10 -27 27 66 77 78 131 31 l33 -29 0 63 c0
49 5 70 21 92 28 38 57 37 64 -2 6 -35 11 -29 34 42 20 61 56 103 89 103 35 0
51 -24 44 -67 -6 -35 -5 -36 11 -19 12 12 18 40 22 104 l5 87 52 3 c64 4 119
-20 142 -60 35 -61 35 -9 1 85 -17 43 -17 47 -2 47 21 0 55 -28 70 -55 11 -19
11 -19 12 -1 0 10 -23 42 -51 70 -61 61 -57 79 15 84 34 2 57 -3 83 -18 20
-11 37 -19 40 -17 2 3 -18 28 -45 55 -39 40 -47 54 -37 62 10 8 29 5 70 -9 66
-23 90 -42 116 -91 10 -19 19 -28 19 -20 1 8 6 2 11 -15 5 -16 6 -46 3 -65 -5
-29 -4 -33 7 -22 32 30 32 -4 1 -41 -14 -16 -14 -17 1 -11 9 3 17 3 17 -1 0
-12 -22 -50 -44 -74 l-21 -24 22 12 c37 19 17 -15 -23 -40 -40 -24 -44 -32 -9
-19 14 5 25 6 25 2 0 -8 -48 -47 -85 -69 -25 -15 -15 -16 21 -3 50 19 8 -17
-59 -50 -33 -16 -52 -30 -41 -30 18 -1 18 -1 -1 -16 -11 -9 -47 -29 -80 -45
-52 -25 -56 -28 -25 -23 28 3 16 -5 -55 -42 -49 -25 -80 -44 -67 -41 48 11 18
-13 -70 -57 -58 -28 -81 -43 -60 -39 17 3 32 3 32 0 0 -3 -34 -31 -75 -62 -77
-60 -87 -69 -58 -58 9 4 -15 -25 -54 -63 -70 -69 -133 -162 -133 -198 0 -11
14 8 30 41 30 59 75 115 55 68 -4 -11 -9 -36 -11 -55 l-3 -35 8 31 c10 38 42
94 54 94 5 0 7 6 4 14 -11 28 87 96 163 113 l55 13 -47 -4 c-27 -2 -48 0 -48
4 0 14 82 79 127 101 51 25 146 35 229 24 75 -9 48 -22 -52 -23 -52 -1 -92 -9
-145 -29 l-74 -28 65 -6 c36 -3 85 -15 110 -27 l45 -22 -69 6 c-43 4 -66 2
-62 -4 3 -5 -13 -13 -38 -16 -24 -4 -79 -25 -122 -47 -44 -22 -68 -37 -54 -34
36 8 216 19 210 12 -3 -3 -38 -10 -78 -16 -70 -11 -152 -43 -152 -59 0 -4 -21
-32 -47 -62 -26 -30 -38 -47 -27 -38 26 22 86 43 147 51 56 8 56 -7 0 -16 -21
-4 -58 -17 -83 -29 -38 -19 -53 -37 -95 -110 -27 -48 -67 -105 -87 -125 l-38
-38 0 61 c0 33 7 83 15 110 20 67 19 67 -15 5 -28 -51 -41 -83 -20 -51 7 10
10 -10 10 -65 0 -63 -4 -86 -20 -110 l-20 -30 -1 25 c-1 18 -3 20 -6 7 -3 -10
-2 -25 1 -34 5 -12 14 -5 37 28 60 85 121 139 173 154 27 8 63 15 80 14 l31 0
-25 -11 c-109 -48 -173 -89 -205 -135 -8 -12 -21 -52 -29 -90 -8 -37 -18 -77
-22 -88 -4 -11 7 -2 23 20 43 59 85 91 149 115 31 11 58 19 60 17 2 -2 -20
-20 -48 -40 -65 -45 -96 -73 -125 -111 -20 -25 -23 -40 -23 -123 l0 -95 39 58
c22 33 61 79 86 104 l47 45 -62 -97 -62 -97 7 -58 c9 -73 35 -193 46 -213 6
-10 7 -4 3 16 -7 35 17 97 60 160 31 46 33 41 6 -17 -14 -31 -20 -66 -20 -120
0 -69 4 -83 44 -165 l45 -89 0 46 c1 44 26 135 39 143 4 2 7 -37 7 -87 0 -84
3 -98 35 -163 36 -76 47 -84 133 -84 15 0 27 -4 27 -10 0 -5 -16 -10 -36 -10
-42 0 -38 -11 19 -47 33 -21 53 -26 97 -25 45 1 52 -1 35 -10 -10 -6 -42 -11
-70 -10 l-50 1 60 -26 c33 -14 87 -34 119 -44 l60 -18 37 40 c69 75 125 203
153 350 8 42 28 109 45 149 39 90 40 123 6 138 -14 7 -37 12 -50 12 -28 0 -31
16 -10 44 21 28 20 32 -26 58 -48 27 -69 63 -68 115 l1 38 7 -35 c12 -57 26
-74 85 -103 60 -29 69 -47 35 -70 -20 -15 -20 -15 14 -26 19 -7 42 -20 52 -30
19 -22 14 -48 -34 -171 -16 -41 -39 -118 -51 -170 -38 -165 -116 -299 -220
-377 -40 -30 -47 -40 -39 -54 15 -28 10 -36 -7 -11 -21 30 -34 28 -34 -6 0
-17 10 -38 25 -52 31 -29 25 -37 -10 -14 -26 17 -28 17 -41 -1 -19 -26 -17
-64 5 -108 14 -28 15 -35 5 -26 -44 36 -58 123 -25 153 11 10 21 35 23 58 3
37 1 41 -32 58 -20 10 -53 37 -73 59 -20 22 -48 48 -63 57 -24 16 -25 19 -8
25 15 6 16 8 3 8 -9 1 -34 13 -55 27 -28 18 -19 5 36 -47 72 -70 74 -73 50
-80 -14 -4 -41 -7 -61 -8 -20 -1 -57 -7 -83 -15 -48 -15 -151 -75 -142 -83 3
-3 19 5 35 17 32 22 44 13 14 -11 -23 -19 -73 -90 -73 -103 0 -6 11 7 24 29
13 22 39 49 58 59 33 19 33 18 -10 -25 -52 -56 -82 -135 -82 -221 0 -88 16
-134 61 -182 l39 -41 -20 45 c-48 110 -13 105 89 -13 44 -50 94 -100 111 -110
17 -10 72 -30 122 -43 98 -26 201 -76 261 -125 44 -36 42 -44 -37 -127 -46
-49 -54 -53 -85 -48 -19 3 -50 18 -70 34 -20 16 -50 36 -68 46 -18 9 -37 25
-43 35 -13 26 -44 35 -70 21 -30 -16 -24 -37 20 -66 48 -32 47 -44 -1 -15 -62
38 -118 20 -105 -34 6 -22 9 -23 32 -15 46 18 157 12 213 -11 28 -12 50 -24
47 -26 -2 -2 -20 3 -40 11 -69 29 -218 30 -216 1 0 -6 21 -18 48 -27 57 -20
33 -23 -31 -4 -52 16 -74 4 -62 -33 8 -26 35 -34 71 -21 15 6 58 11 94 11 36
-1 82 -1 103 -1 21 0 45 -4 54 -8 9 -6 -27 -8 -93 -6 -122 3 -174 -11 -174
-45 0 -18 7 -21 43 -22 41 -1 41 -1 12 -10 -16 -5 -43 -6 -58 -3 -33 7 -55 -8
-73 -51 -12 -27 -13 -28 -14 -7 0 15 16 39 40 63 41 40 50 59 28 59 -6 0 -22
9 -34 21 l-22 20 -21 -34 c-11 -19 -21 -47 -21 -63 0 -18 -3 -25 -10 -18 -14
14 4 69 34 105 32 37 32 47 4 54 -204 45 -317 81 -385 124 -43 26 -61 51 -23
31 10 -6 47 -12 82 -15 l63 -5 -61 14 c-73 17 -128 43 -209 101 -93 66 -185
171 -185 211 0 3 26 -13 58 -34 69 -47 98 -62 57 -30 -123 95 -166 166 -172
286 -4 75 -3 76 12 49 21 -37 27 -30 15 14 -20 69 -3 186 35 234 14 19 14 18
5 -9 -19 -52 -5 -36 34 41 28 54 53 86 90 115 85 68 267 141 310 125 47 -18
-3 -110 -114 -210 l-53 -47 83 35 c108 46 200 98 278 157 35 26 66 48 69 48 4
0 16 -8 27 -17 12 -10 -1 6 -29 35 -55 58 -54 65 5 26 22 -15 43 -25 45 -22 3
3 -21 21 -54 42 -81 49 -181 160 -228 251 -28 55 -42 73 -53 69 -8 -4 -81 -30
-161 -59 -81 -29 -172 -65 -203 -81 -155 -78 -260 -203 -333 -394 -38 -100
-44 -95 -9 8 66 192 180 328 348 413 53 27 347 129 371 129 6 0 37 -28 69 -62
32 -35 58 -57 58 -51 0 7 -19 29 -41 50 -50 45 -101 112 -94 123 3 5 -7 28
-21 52 -14 23 -23 34 -19 23 4 -11 11 -34 15 -52 l8 -32 -77 -30 c-42 -17 -84
-31 -94 -31 -10 0 -30 21 -48 50 -29 47 -44 57 -94 61 -49 3 -68 -3 -103 -37
l-37 -36 34 23 c19 13 49 23 67 23 34 0 74 -27 74 -50 0 -44 -158 -153 -203
-140 -147 43 -191 41 -238 -10 l-24 -27 32 17 c61 31 123 13 123 -35 0 -44
-68 -139 -99 -139 -35 0 -92 -22 -122 -47 -34 -29 -69 -94 -68 -128 0 -15 4
-11 14 12 19 44 51 73 80 73 24 0 25 -3 24 -52 0 -29 -6 -77 -12 -107 -11 -51
-16 -58 -71 -95 -71 -49 -94 -89 -101 -177 l-5 -64 14 49 c28 96 79 132 112
81 12 -18 19 -54 22 -109 4 -77 2 -86 -28 -146 -31 -61 -32 -68 -28 -159 2
-53 9 -105 15 -115 9 -16 10 -6 6 46 -6 70 8 133 32 142 18 7 41 -25 95 -133
38 -77 41 -89 36 -134 -10 -70 14 -132 75 -198 49 -53 49 -53 20 -10 -44 62
-60 131 -32 131 4 0 23 -21 41 -47 88 -122 245 -260 385 -338 143 -80 357
-152 565 -189 316 -56 850 -80 1265 -56 566 33 841 102 1012 256 35 31 68 52
74 48 18 -11 3 -72 -28 -112 l-28 -37 34 24 c48 35 68 74 75 152 13 128 55
229 96 229 29 0 43 -36 38 -94 l-5 -51 18 40 c10 22 19 63 19 91 0 41 -6 58
-31 92 -28 38 -31 49 -27 97 3 38 12 64 32 89 32 42 38 43 66 14 14 -15 20
-36 21 -67 0 -41 1 -43 10 -21 6 14 9 47 6 73 -3 38 -11 56 -38 83 -18 19 -47
38 -64 42 -25 7 -37 21 -72 92 -24 47 -43 95 -43 107 0 51 95 69 141 27 28
-25 24 2 -5 31 -32 32 -96 48 -160 40 -45 -6 -60 -3 -102 19 -88 46 -111 76
-91 116 17 33 54 51 100 47 33 -2 36 -1 21 10 -22 16 -97 27 -134 19 -16 -3
-54 -22 -85 -42 -88 -59 -192 -59 -230 0 -21 31 -7 63 33 73 l27 7 -25 7 c-14
4 -41 7 -61 8 -52 1 -59 14 -59 112 0 309 255 661 593 819 120 56 246 91 357
97 102 6 135 -2 174 -46 59 -65 -55 -323 -266 -601 l-49 -65 51 55 c143 154
340 422 385 523 66 151 80 245 95 642 21 546 57 765 129 765 61 0 117 -152
142 -385 12 -117 6 -331 -12 -417 -6 -27 -9 -52 -6 -54 7 -7 52 188 73 321 14
81 19 164 19 320 l0 210 -34 100 c-61 183 -161 356 -318 550 -139 172 -602
642 -774 785 -77 65 -190 119 -494 240 -267 106 -280 113 -265 140 14 27 65
33 128 17 28 -8 52 -13 52 -11 0 2 -20 15 -45 30 -33 19 -64 28 -108 30 -54 4
-69 1 -117 -25z m-54 -77 c38 -14 137 -50 219 -79 157 -55 348 -135 342 -142
-10 -9 -435 139 -532 186 -58 27 -105 52 -105 55 0 9 2 8 76 -20z m257 -180
c847 -424 1402 -856 1596 -1241 68 -136 116 -307 125 -443 l5 -75 -9 65 c-42
301 -165 548 -382 769 -196 198 -438 363 -1243 846 -126 76 -232 139 -234 141
-16 14 27 -5 142 -62z m376 -494 c140 -181 222 -311 424 -676 198 -358 207
-383 172 -468 -40 -95 -143 -169 -450 -324 -245 -124 -364 -201 -476 -312
-106 -105 -144 -178 -195 -375 -41 -158 -49 -178 -110 -255 -65 -83 -77 -119
-82 -250 -5 -132 7 -193 62 -310 27 -60 35 -69 40 -52 10 32 83 92 111 92 54
0 96 -74 130 -231 14 -60 35 -137 49 -170 l24 -60 -25 -10 c-13 -5 -30 -9 -37
-9 -7 0 -21 -7 -32 -15 -17 -13 -16 -14 14 -4 25 9 40 9 58 0 39 -17 31 -53
-22 -100 -26 -23 -50 -41 -54 -41 -10 0 -54 50 -87 100 -17 25 -49 59 -71 77
-22 18 -56 61 -76 97 -49 87 -108 161 -156 192 -21 14 -74 38 -117 52 l-78 27
-30 62 c-39 81 -49 91 -104 107 l-46 15 35 0 c54 1 94 -30 132 -101 l33 -63
77 -26 c116 -39 161 -80 246 -227 l34 -57 -6 83 c-7 84 -26 154 -90 319 -43
109 -54 204 -37 312 14 91 36 142 85 200 55 66 76 112 112 256 18 72 42 151
53 178 46 107 131 205 266 308 88 67 165 113 400 233 253 130 298 159 353 221
48 54 60 100 44 162 -7 23 -65 129 -130 235 -66 106 -182 304 -260 440 -195
342 -258 433 -451 650 -52 58 -34 43 61 -52 73 -74 167 -178 207 -230z m-2103
216 c-7 -35 -46 -90 -162 -227 -38 -46 -88 -108 -109 -138 l-38 -53 34 7 34 7
-40 -29 c-35 -26 -84 -83 -71 -83 2 0 19 7 39 15 34 14 33 13 -22 -43 -58 -59
-100 -131 -112 -192 l-7 -35 -1 40 c-1 71 102 291 199 421 21 28 77 95 125
150 93 105 124 156 126 201 1 19 3 22 6 10 3 -11 2 -34 -1 -51z m76 -463 c-17
-21 -49 -85 -72 -142 -22 -58 -46 -111 -52 -118 -6 -7 -9 -15 -7 -17 8 -6 276
115 317 144 23 16 42 25 42 19 0 -25 -98 -205 -133 -245 -45 -51 -71 -67 -177
-104 -41 -15 -84 -30 -95 -34 -16 -6 -15 -4 5 13 14 12 58 31 99 43 93 28 157
83 223 195 68 114 68 119 11 80 -27 -18 -88 -48 -134 -67 -46 -18 -114 -48
-151 -67 -37 -18 -70 -33 -73 -33 -2 0 9 19 25 43 17 23 48 87 70 141 60 147
70 165 99 180 37 20 37 13 3 -31z m-355 -100 c-15 -18 -87 -163 -81 -163 2 0
39 27 81 60 43 33 81 60 86 60 9 0 -97 -155 -126 -185 -16 -17 -16 -13 4 22
13 23 21 45 17 49 -9 9 -97 -56 -141 -106 -38 -41 -122 -205 -130 -254 -4 -21
1 -35 19 -53 13 -12 21 -23 18 -23 -14 0 -45 23 -54 40 -24 45 73 244 164 335
28 27 52 58 53 68 6 39 83 167 100 167 3 0 -1 -8 -10 -17z m2552 -148 c-1 -13
-57 107 -57 120 0 6 13 -17 28 -50 16 -33 29 -64 29 -70z m509 32 c115 -191
188 -365 246 -588 93 -356 126 -731 91 -1034 -15 -123 -53 -297 -75 -333 -14
-25 -12 0 5 48 72 204 67 769 -10 1163 -59 307 -170 596 -307 806 -12 19 -17
32 -11 28 7 -4 34 -45 61 -90z m-2125 -117 c95 -86 140 -176 173 -340 22 -110
15 -266 -16 -365 -20 -64 -75 -185 -84 -185 -2 0 12 36 30 79 52 120 67 204
61 351 -5 133 -25 217 -74 314 -31 61 -116 152 -189 202 -30 21 -54 39 -54 41
0 13 107 -55 153 -97z m-1153 19 c-25 -74 -46 -103 -35 -49 l7 35 -29 -40
c-15 -22 -40 -65 -55 -95 -35 -69 -28 -19 8 55 25 52 112 170 120 162 3 -3 -5
-33 -16 -68z m2838 -99 c72 -182 94 -269 94 -371 0 -76 -3 -93 -27 -137 -36
-66 -52 -81 -230 -203 -148 -101 -257 -182 -345 -256 -25 -20 -36 -27 -25 -14
31 37 198 168 351 277 229 163 256 200 255 350 0 87 -27 198 -86 354 -55 148
-59 159 -47 140 6 -8 33 -71 60 -140z m-2297 40 c-31 -26 -86 -48 -97 -38 -3
4 115 67 126 67 3 0 -10 -13 -29 -29z m439 -112 c16 -22 30 -46 30 -52 0 -6
-8 3 -18 19 -11 17 -26 36 -35 44 -16 13 -23 31 -12 31 3 0 18 -19 35 -42z
m49 -108 c0 -10 -3 -8 -9 5 -12 27 -12 43 0 25 5 -8 9 -22 9 -30z m-483 -26
c23 -14 48 -32 56 -41 11 -14 11 -16 -2 -8 -141 86 -150 89 -151 53 0 -13 -3
-17 -6 -10 -3 7 -2 20 1 28 8 20 43 12 102 -22z m-436 -9 c0 -4 -7 -19 -15
-35 -17 -34 -43 -50 -77 -50 -20 1 -17 6 27 45 46 42 65 53 65 40z m343 -27
c10 -5 16 -12 13 -16 -4 -3 -12 0 -18 6 -7 7 -25 12 -40 12 -15 0 -28 5 -28
10 0 11 42 4 73 -12z m-91 5 c-6 -2 -9 -10 -6 -15 4 -7 2 -8 -4 -4 -18 11 -14
26 6 25 10 0 12 -3 4 -6z m685 -15 c-3 -8 -6 -5 -6 6 -1 11 2 17 5 13 3 -3 4
-12 1 -19z m2010 -109 c5 -49 2 -66 -20 -112 -25 -51 -77 -112 -77 -90 0 5 9
18 19 27 11 10 29 40 41 68 18 41 21 66 18 124 -4 86 11 72 19 -17z m-2703 61
c14 -5 26 -14 26 -20 0 -7 -9 -5 -22 4 -29 21 -38 20 -38 -1 0 -15 -2 -16 -9
-3 -18 28 0 37 43 20z m707 -62 c-8 -21 -8 -34 -1 -38 9 -5 -7 -37 -64 -128
-6 -10 1 -9 24 3 53 27 46 9 -12 -29 -59 -40 -59 -42 1 -21 22 8 41 13 41 11
0 -4 -237 -124 -265 -135 -5 -2 -1 6 10 19 11 13 46 35 77 50 32 15 54 30 51
34 -4 3 6 19 20 34 27 28 116 212 118 242 0 11 2 11 6 2 3 -7 0 -27 -6 -44z
m-1210 -93 c-22 -24 -41 -49 -41 -55 0 -12 -7 -13 70 10 76 23 73 23 66 11 -3
-5 -18 -12 -33 -16 -58 -14 -133 -58 -133 -77 0 -19 2 -19 38 2 l37 22 -30
-25 c-34 -30 -49 -30 -53 0 -2 13 6 27 20 37 18 13 19 16 5 16 -26 0 -21 10
35 67 64 65 76 70 19 8z m-167 -157 c4 -16 18 -34 34 -42 15 -9 21 -15 14 -16
-24 0 -62 48 -61 77 1 29 3 25 13 -19z m193 0 c-3 -8 -6 -5 -6 6 -1 11 2 17 5
13 3 -3 4 -12 1 -19z m1259 -84 c-57 -120 -116 -194 -316 -399 -196 -201 -231
-250 -265 -370 -24 -82 -22 -228 4 -320 11 -38 18 -71 16 -73 -5 -5 -53 128
-64 178 -25 109 -6 223 56 344 32 61 70 103 259 291 220 219 292 308 325 404
6 17 14 30 16 27 3 -3 -11 -40 -31 -82z m-1295 23 c-10 -9 -11 -8 -5 6 3 10 9
15 12 12 3 -3 0 -11 -7 -18z m-22 -22 c7 3 8 0 5 -9 -8 -22 -17 -20 -33 7 -13
20 -13 21 2 9 9 -8 21 -11 26 -7z m1091 -16 c-47 -10 -113 -31 -148 -46 -34
-14 -65 -23 -68 -20 -12 12 89 66 135 72 25 4 51 8 56 10 6 2 33 3 60 3 48 0
46 0 -35 -19z m-25 -79 c4 -6 -13 -10 -43 -10 -27 0 -87 -12 -133 -26 -46 -14
-95 -28 -109 -31 -23 -6 -24 -5 -11 11 19 23 61 44 108 55 53 12 181 13 188 1z
m1102 -607 c-58 -94 -140 -186 -254 -285 -60 -51 -141 -124 -182 -163 -40 -38
-68 -59 -61 -47 6 13 107 118 223 233 117 116 232 236 257 268 25 32 47 57 49
55 2 -1 -13 -29 -32 -61z m-893 -165 c72 -45 173 -98 225 -120 127 -51 156
-79 145 -137 l-6 -30 -22 32 c-13 19 -59 54 -117 87 -52 30 -146 87 -209 127
-167 105 -244 118 -310 52 -16 -17 -30 -27 -30 -23 0 18 55 77 84 90 54 25
100 10 240 -78z m-265 -51 c-47 -31 -69 -79 -69 -152 0 -42 -3 -56 -10 -45 -5
8 -10 37 -10 63 0 78 52 157 104 157 14 0 11 -5 -15 -23z m-1179 -899 c-48
-55 -87 -114 -120 -182 -69 -139 -85 -205 -84 -346 1 -135 26 -229 94 -345
105 -177 243 -305 433 -396 45 -22 71 -37 57 -34 -59 15 -192 90 -267 150
-135 108 -242 257 -300 416 -24 67 -27 88 -27 214 -1 133 1 144 32 230 40 112
109 228 185 311 32 35 61 64 63 64 2 0 -27 -37 -66 -82z m1611 -49 c-25 -5
-49 -13 -54 -18 -14 -14 9 -48 55 -81 44 -32 44 -39 -1 -15 -32 16 -81 70 -81
89 0 24 25 36 75 35 l50 -1 -44 -9z m-156 -121 c-32 -56 -31 -84 5 -141 17
-26 30 -55 30 -63 0 -13 45 -117 58 -134 2 -3 8 4 14 14 36 65 110 122 207
162 l56 24 -40 1 c-22 1 -48 2 -57 1 -10 -1 -18 2 -18 7 0 12 128 41 183 41
62 0 154 -19 210 -42 26 -12 46 -22 44 -24 -2 -2 -35 3 -73 11 -78 17 -143 20
-109 5 17 -7 15 -9 -12 -9 -57 -2 -172 -30 -223 -56 -49 -25 -72 -46 -27 -25
15 7 13 4 -7 -12 -73 -57 -116 -103 -142 -154 -25 -48 -32 -54 -53 -49 -17 4
-27 0 -38 -15 -8 -11 -20 -20 -28 -20 -38 0 -17 -62 32 -99 15 -11 23 -21 16
-21 -22 0 -83 62 -91 93 -7 27 -14 33 -45 38 -35 6 -37 5 -37 -23 0 -44 24
-92 61 -121 37 -29 29 -38 -9 -11 -41 29 -82 94 -82 132 0 27 -9 45 -40 78
-56 61 -58 79 -15 160 20 38 33 60 30 49 -18 -55 -18 -96 1 -111 17 -14 17
-15 2 -10 -10 3 -25 9 -33 12 -22 9 -19 -24 5 -64 21 -33 74 -72 100 -72 12 0
14 12 12 62 -1 35 1 90 6 123 l10 60 1 -63 c1 -54 5 -66 27 -87 27 -25 23 -33
-6 -15 -32 20 -34 -45 -2 -82 33 -38 106 -3 83 40 -14 26 -54 182 -48 188 3 3
12 -17 21 -43 9 -26 26 -56 39 -66 l22 -18 -22 6 c-29 8 -29 2 2 -52 30 -50
42 -53 55 -17 16 41 12 65 -25 138 -19 39 -35 75 -35 80 0 6 -14 31 -30 56
-16 25 -30 53 -30 63 0 23 48 117 60 117 5 0 -2 -19 -15 -42z m710 -129 c35
-17 73 -42 86 -55 17 -18 4 -13 -57 21 -97 55 -111 64 -100 64 5 1 37 -13 71
-30z m-618 -135 c-3 -3 -12 -4 -19 -1 -8 3 -5 6 6 6 11 1 17 -2 13 -5z m58
-95 c-9 -17 -23 -60 -30 -96 -16 -76 -8 -138 26 -205 14 -27 16 -38 7 -31 -24
20 -60 103 -66 149 -6 55 12 128 44 177 29 45 41 49 19 6z m628 -2 c76 -28
168 -81 200 -116 15 -16 2 -11 -42 18 -80 51 -153 78 -247 92 -136 21 -219 -4
-250 -75 -12 -27 -13 -28 -14 -8 0 51 35 92 99 113 46 15 182 2 254 -24z m480
26 c-7 -2 -19 -2 -25 0 -7 3 -2 5 12 5 14 0 19 -2 13 -5z m290 -31 c34 -17 74
-43 87 -58 21 -22 16 -21 -26 10 -63 44 -114 66 -179 77 l-50 8 52 -3 c34 -2
75 -14 116 -34z m-114 -147 c16 -8 41 -29 57 -47 15 -18 25 -25 21 -15 -3 9
-2 17 3 17 14 0 51 -52 57 -82 3 -15 11 -29 18 -32 8 -3 15 -34 20 -84 6 -66
4 -85 -11 -113 -9 -19 -19 -47 -21 -64 -5 -49 -53 -105 -118 -141 -33 -19 -55
-34 -50 -34 11 -1 -35 -29 -48 -30 -4 0 -3 9 3 19 14 27 13 80 -5 197 -8 54
-15 126 -15 158 l0 59 25 -23 c14 -13 30 -42 36 -64 22 -81 29 -84 26 -10 -5
90 -33 148 -104 215 -72 68 -57 91 30 49 l42 -21 -27 25 c-16 14 -28 28 -28
31 0 11 62 4 89 -10z m-1150 -129 c20 -21 56 -66 80 -100 24 -34 99 -118 167
-188 131 -137 207 -239 202 -272 -2 -14 -22 -30 -62 -50 l-59 -28 -41 20 c-23
11 -52 23 -66 27 -14 4 -46 18 -72 31 -54 27 -67 28 -139 13 -33 -7 -61 -21
-77 -38 -14 -14 -23 -19 -20 -11 4 13 -18 15 -155 18 -92 1 -166 7 -171 12 -7
7 27 46 104 120 63 60 118 110 122 110 4 0 12 8 17 19 9 15 0 34 -44 102 -52
79 -58 99 -31 99 12 0 386 -371 386 -383 0 -3 -12 0 -26 8 -20 10 -34 11 -53
3 -14 -5 -38 -11 -53 -12 -24 -2 -84 -44 -75 -52 2 -2 32 6 67 17 71 22 88 20
166 -17 28 -13 57 -24 64 -24 7 0 32 -9 55 -21 l42 -21 48 24 c27 12 50 28 52
34 7 22 -67 114 -191 239 -78 79 -149 162 -181 210 -28 44 -70 102 -93 128
-72 82 -41 68 37 -17z m1052 -428 c0 -7 2 -22 4 -32 7 -35 -13 -54 -65 -65
-28 -6 -56 -11 -61 -11 -6 0 13 27 42 60 50 57 78 74 80 48z m-931 -158 c11
-7 -3 -10 -45 -10 -113 0 -175 -32 -175 -90 0 -21 -4 -28 -14 -24 -18 7 -76
-43 -92 -81 -12 -28 -13 -29 -14 -6 0 17 16 40 49 71 26 25 51 55 55 68 18 56
182 107 236 72z m85 -40 c15 -7 10 -9 -24 -9 -47 -1 -101 -28 -126 -64 -21
-30 -19 -35 18 -58 27 -17 28 -20 7 -14 -14 4 -34 15 -44 25 -18 18 -18 20 -2
45 21 33 103 85 130 84 12 0 30 -4 41 -9z m117 -58 c5 -5 -13 -7 -46 -4 -50 4
-57 2 -83 -24 l-28 -29 42 -6 c55 -7 71 -23 18 -17 -58 7 -83 -6 -105 -54 -13
-29 -20 -36 -20 -22 0 29 79 145 110 162 26 13 96 10 112 -6z m-332 -62 c0 -5
-9 -10 -20 -10 -24 0 -80 -27 -80 -38 0 -5 -7 -17 -15 -28 -15 -19 -15 -19 -9
1 9 27 44 65 69 75 28 12 55 12 55 0z"/>
<path d="M2264 5164 c-18 -14 -18 -15 4 -4 12 6 22 13 22 15 0 8 -5 6 -26 -11z"/>
<path d="M2214 5134 c-18 -14 -18 -15 4 -4 12 6 22 13 22 15 0 8 -5 6 -26 -11z"/>
<path d="M2138 5094 c-38 -20 -36 -28 2 -9 17 9 30 18 30 20 0 7 -1 6 -32 -11z"/>
<path d="M1395 3700 c-8 -13 -15 -74 -8 -67 3 4 12 0 20 -8 25 -25 35 -16 14
11 -22 28 -27 54 -11 54 6 0 10 5 10 10 0 13 -17 13 -25 0z"/>
<path d="M1948 3423 c6 -2 18 -2 25 0 6 3 1 5 -13 5 -14 0 -19 -2 -12 -5z"/>
<path d="M3045 3124 l-40 -36 43 32 c36 27 49 40 40 40 -2 0 -21 -16 -43 -36z"/>
<path d="M1650 3125 c-7 -9 -11 -17 -9 -20 3 -2 10 5 17 15 14 24 10 26 -8 5z"/>
<path d="M2955 3054 l-40 -36 43 32 c36 27 49 40 40 40 -2 0 -21 -16 -43 -36z"/>
<path d="M1496 2975 c-3 -9 -6 -22 -5 -28 0 -7 5 -1 10 12 5 13 8 26 5 28 -2
2 -6 -3 -10 -12z"/>
<path d="M2755 2950 l-50 -7 45 -1 c25 -1 52 3 60 8 8 5 11 9 5 8 -5 -1 -32
-4 -60 -8z"/>
<path d="M1481 2920 c-1 -8 -4 -26 -7 -40 -5 -22 -4 -23 6 -7 6 10 9 28 7 40
-2 12 -5 15 -6 7z"/>
<path d="M1447 2798 c-3 -18 -1 -37 4 -42 5 -6 9 7 9 32 0 50 -6 54 -13 10z"/>
<path d="M1441 2694 c1 -16 5 -40 9 -54 6 -17 7 -9 3 25 -6 56 -14 74 -12 29z"/>
<path d="M1490 2639 c0 -15 18 -19 23 -6 3 8 -1 14 -9 14 -8 0 -14 -4 -14 -8z"/>
<path d="M1474 2497 c4 -11 9 -30 12 -43 3 -13 10 -24 15 -24 13 0 11 11 -12
50 -11 19 -18 27 -15 17z"/>
<path d="M2150 1635 c53 -28 69 -30 96 -10 18 13 16 14 -16 9 -22 -4 -51 0
-74 10 -55 23 -58 19 -6 -9z"/>
<path d="M1871 670 c0 -19 4 -42 9 -50 8 -12 10 -11 9 5 -1 11 -5 34 -9 50
l-8 30 -1 -35z"/>
</g>
</svg>
