<?xml version="1.0" standalone="no"?>
<!DOCTYPE svg PUBLIC "-//W3C//DTD SVG 20010904//EN"
 "http://www.w3.org/TR/2001/REC-SVG-20010904/DTD/svg10.dtd">
<svg version="1.0" xmlns="http://www.w3.org/2000/svg"
 width="980.000000pt" height="980.000000pt" viewBox="0 0 980.000000 980.000000"
 preserveAspectRatio="xMidYMid meet">

<g transform="translate(0.000000,980.000000) scale(0.100000,-0.100000)"
fill="#EF4444" stroke="none">
<path d="M4896 9309 c-18 -174 -111 -364 -240 -488 l-35 -34 -108 99 -108 99
-8 -65 c-14 -121 -38 -234 -64 -300 -14 -36 -27 -67 -29 -68 -1 -2 -40 6 -85
17 -90 23 -249 28 -329 11 -88 -19 -160 -43 -160 -54 0 -6 23 -53 50 -105 27
-51 48 -96 46 -100 -3 -4 -75 -54 -160 -111 -86 -57 -156 -107 -156 -111 0 -4
55 -51 123 -104 67 -54 122 -101 122 -106 0 -4 -31 -31 -70 -59 -155 -116
-335 -302 -384 -399 -23 -44 -55 -165 -116 -439 -24 -107 -46 -196 -49 -199
-10 -11 -245 111 -351 182 -414 276 -621 631 -665 1146 -6 68 -13 125 -14 126
-6 6 -123 -144 -159 -202 -101 -166 -155 -373 -173 -660 -9 -147 5 -213 54
-263 20 -21 48 -45 62 -53 l25 -16 -54 -69 -53 -69 5 -81 c6 -104 40 -183 108
-250 27 -26 49 -55 49 -64 0 -9 -11 -31 -24 -49 -44 -60 -43 -92 13 -262 27
-85 57 -181 67 -214 21 -77 54 -121 96 -130 18 -4 36 -9 40 -12 4 -2 -8 -36
-28 -75 -40 -79 -41 -76 40 -105 27 -10 51 -23 53 -30 3 -7 -10 -38 -28 -69
l-32 -57 18 -34 19 -34 18 23 c22 28 -8 63 240 -285 175 -246 190 -270 180
-293 -25 -54 -176 -287 -259 -399 -98 -132 -249 -309 -337 -395 -79 -77 -76
-83 37 -76 50 3 140 8 199 12 l106 6 -19 -64 c-61 -190 -69 -446 -25 -703 25
-144 35 -173 53 -162 5 3 71 104 148 225 77 121 141 219 143 217 2 -2 14 -83
28 -182 33 -245 59 -376 100 -501 38 -116 121 -298 132 -287 4 3 34 72 69 153
34 81 68 148 75 149 21 4 232 -394 272 -512 32 -94 38 -192 21 -366 -8 -89
-13 -164 -11 -167 11 -10 141 43 196 79 33 22 87 70 120 106 33 36 62 64 64
62 2 -2 20 -37 41 -78 25 -51 40 -98 46 -145 21 -155 61 -290 124 -416 34 -67
135 -223 177 -274 l25 -29 38 154 c21 85 41 158 45 162 16 18 288 -316 413
-508 85 -130 178 -318 212 -428 15 -48 30 -86 32 -83 3 3 18 44 34 93 73 219
213 448 465 762 l148 184 11 -34 c7 -19 27 -91 46 -161 19 -71 38 -127 43
-125 17 6 142 187 184 266 56 105 108 268 121 377 12 103 24 141 71 234 l32
64 21 -29 c47 -68 139 -145 220 -184 45 -22 95 -44 111 -47 l29 -7 -7 64 c-3
35 -9 132 -13 215 -7 187 7 262 82 409 48 95 214 364 225 365 3 0 32 -70 65
-155 33 -85 64 -155 68 -155 15 0 114 222 146 325 51 167 85 356 97 548 4 59
10 107 13 107 3 0 71 -101 151 -224 82 -127 148 -219 151 -213 12 20 48 217
60 321 21 177 3 393 -45 549 l-15 49 82 -6 c205 -14 305 -17 310 -9 3 5 -28
44 -69 88 -197 212 -336 384 -458 569 -82 124 -139 233 -130 248 4 7 41 54 81
106 213 272 416 631 536 948 147 386 220 728 248 1159 27 420 -19 682 -159
905 -62 97 -158 213 -172 205 -4 -2 -8 -51 -9 -107 -5 -354 -146 -703 -384
-955 -96 -101 -217 -197 -340 -271 -97 -58 -255 -132 -281 -132 -7 0 -22 54
-40 148 -62 332 -88 411 -178 549 -68 105 -132 169 -281 285 -70 55 -125 103
-123 107 3 4 27 16 53 26 55 20 83 42 83 63 0 28 -95 196 -139 245 -25 27 -91
80 -148 118 -57 38 -103 71 -103 73 0 2 54 36 120 76 67 40 123 77 126 82 7
12 -146 82 -226 104 -132 36 -311 20 -423 -37 l-38 -20 -60 124 c-37 77 -65
152 -75 198 -34 169 -111 298 -230 388 -37 28 -72 51 -79 51 -7 0 -15 -23 -19
-61z m134 -559 c0 -80 -6 -190 -14 -245 -14 -95 -13 -122 2 -99 4 6 34 46 67
88 54 71 60 76 72 60 22 -30 35 -94 42 -201 l6 -101 90 79 c125 111 192 147
304 164 l44 7 -26 -33 c-42 -57 -68 -119 -74 -175 -5 -50 -4 -53 18 -58 142
-28 221 -51 271 -78 62 -33 131 -102 126 -126 -2 -8 -24 -26 -50 -39 l-48 -25
-92 22 c-363 84 -345 81 -380 67 -18 -8 -123 -99 -233 -202 -110 -103 -212
-199 -227 -212 l-26 -25 -184 174 c-240 227 -277 261 -296 272 -18 10 -79 0
-305 -50 l-158 -36 -32 26 c-18 14 -50 41 -72 60 l-40 35 65 29 c36 15 95 41
133 57 37 15 67 32 67 36 0 5 -11 43 -25 86 -14 43 -25 81 -25 86 0 12 91 8
146 -7 28 -7 91 -34 140 -60 50 -25 93 -46 97 -46 3 0 31 80 63 177 l56 177
27 -30 c14 -17 40 -47 56 -68 l30 -37 122 138 c135 153 166 194 215 280 l33
58 7 -40 c4 -22 7 -105 8 -185z m-655 -899 c17 -10 84 -70 151 -132 359 -338
373 -351 388 -342 8 4 41 33 73 63 32 31 147 138 255 238 228 210 208 202 377
157 206 -55 415 -181 594 -359 118 -117 150 -197 228 -574 17 -84 29 -155 26
-158 -2 -2 -73 27 -157 66 -84 39 -155 68 -158 65 -13 -13 68 -107 252 -293
111 -112 206 -213 213 -225 9 -16 12 -100 13 -294 0 -159 4 -283 10 -298 6
-15 33 -53 61 -84 75 -84 109 -159 109 -239 0 -157 -71 -215 -415 -337 -138
-49 -122 -51 -232 32 -94 73 -284 163 -342 163 -9 0 63 -78 160 -173 173 -169
296 -303 287 -312 -2 -2 -86 52 -187 121 -100 70 -184 125 -186 123 -2 -2 14
-78 36 -168 74 -314 86 -551 40 -736 -22 -85 -119 -291 -151 -320 -13 -11 -28
-15 -43 -11 -48 12 -67 38 -92 131 -22 86 -49 156 -110 290 l-27 60 -85 -170
c-47 -93 -86 -171 -87 -172 -1 -1 -51 7 -111 19 -94 18 -147 22 -355 22 -235
1 -319 -7 -457 -41 -20 -4 -30 12 -108 167 -48 95 -90 169 -94 164 -5 -5 -27
-54 -49 -109 -22 -55 -55 -130 -71 -167 -17 -37 -31 -80 -31 -95 0 -49 -11
-71 -40 -83 -42 -17 -68 -4 -104 53 -57 90 -87 157 -113 256 -23 85 -26 115
-26 266 1 188 19 318 74 524 16 62 28 116 25 118 -2 3 -88 -52 -191 -122 -102
-70 -188 -125 -190 -123 -8 8 148 183 299 336 140 143 148 153 116 147 -57
-12 -89 -28 -253 -129 -86 -53 -165 -96 -176 -96 -26 0 -325 115 -377 145 -51
30 -111 96 -131 144 -36 85 -8 196 76 296 23 28 53 74 68 103 26 53 26 53 24
292 -1 138 2 256 8 277 8 29 61 92 221 263 209 223 255 280 227 280 -8 0 -76
-27 -151 -61 -76 -34 -139 -59 -142 -56 -8 8 41 254 85 425 46 180 56 197 198
339 162 161 340 267 534 317 155 41 174 42 214 17z m3435 -300 c0 -64 13 -122
26 -117 31 12 134 18 134 8 0 -24 -51 -70 -85 -76 -24 -5 -39 -15 -45 -29 -5
-12 -14 -96 -20 -187 -42 -585 -231 -1192 -516 -1658 -69 -112 -194 -294 -241
-350 l-28 -33 -34 67 c-33 65 -34 69 -21 113 7 25 15 62 17 81 8 70 15 81 107
179 158 168 210 277 211 446 0 88 -3 108 -29 168 l-28 67 55 72 c31 40 69 89
85 108 l29 35 21 -35 c27 -43 39 -100 48 -223 4 -54 10 -95 14 -90 5 4 20 46
35 93 33 105 43 234 25 330 l-13 68 37 58 c76 124 118 257 130 414 7 87 6 85
-60 -75 -68 -167 -124 -234 -285 -347 -95 -67 -194 -179 -295 -331 -100 -150
-213 -305 -237 -326 -16 -12 -17 1 -17 181 0 233 -7 262 -86 347 l-53 58 117
52 c266 120 435 231 593 390 76 77 210 240 252 307 5 9 -13 19 -63 35 -38 13
-68 24 -67 25 1 2 35 10 74 18 98 20 120 37 160 124 33 73 53 86 53 33z
m-5740 -79 c132 -270 315 -476 585 -657 110 -74 281 -166 404 -218 l63 -27
-46 -50 c-80 -85 -91 -121 -92 -295 -2 -248 -2 -247 -18 -238 -22 12 -142 166
-204 263 -146 224 -214 301 -371 418 -171 129 -229 216 -297 450 -2 6 -8 12
-13 12 -11 0 -6 -71 9 -151 5 -25 41 -122 81 -215 l71 -169 -12 -82 c-17 -109
-8 -201 34 -326 l34 -102 1 69 c2 126 42 273 77 283 6 2 48 -44 94 -103 l83
-106 -27 -57 c-37 -80 -50 -143 -43 -214 13 -140 74 -254 213 -399 72 -75 96
-107 104 -140 6 -24 18 -65 25 -93 19 -67 -3 -156 -47 -193 -31 -25 -279 331
-402 577 -178 353 -324 858 -366 1261 -16 154 -11 624 6 607 2 -2 26 -49 54
-105z m752 -1639 l86 -88 -52 -104 -53 -104 -32 47 c-81 118 -110 246 -68 309
9 15 21 27 25 27 4 0 46 -39 94 -87z m4283 47 c32 -72 7 -182 -68 -292 -18
-27 -35 -48 -38 -48 -3 0 -12 18 -19 41 -8 22 -31 70 -52 107 -32 53 -36 68
-26 78 36 36 174 154 179 154 3 0 14 -18 24 -40z m-3962 -871 c86 -39 157 -76
157 -81 0 -5 -56 -130 -125 -277 -69 -147 -125 -271 -125 -274 0 -18 28 1 144
98 69 58 128 105 132 105 3 0 3 -7 0 -16 -23 -59 -69 -267 -86 -387 -26 -182
-40 -221 -100 -292 -65 -77 -82 -115 -82 -184 0 -81 67 -246 159 -389 90 -142
256 -257 404 -282 134 -23 230 -2 525 113 211 83 358 132 514 174 94 25 121
28 255 27 189 -1 239 -14 644 -166 330 -123 402 -145 511 -154 91 -7 198 18
293 68 77 41 189 152 240 239 44 75 157 358 157 393 0 22 -12 42 -93 160 -37
54 -75 179 -87 290 -6 51 -26 157 -45 236 -19 79 -33 145 -32 147 2 1 56 -40
120 -93 65 -53 122 -94 127 -92 5 2 -47 126 -116 277 -69 151 -121 277 -117
282 7 7 285 137 304 142 7 2 264 -387 276 -419 3 -7 -36 9 -87 37 -50 28 -94
49 -96 46 -9 -8 77 -127 140 -194 36 -38 122 -116 191 -173 69 -57 123 -105
121 -107 -2 -2 -59 10 -126 27 -68 16 -129 30 -137 30 -9 0 3 -31 36 -92 70
-132 118 -255 146 -372 23 -100 42 -246 31 -246 -3 0 -30 48 -60 108 -100 194
-235 376 -358 485 -36 31 -68 57 -71 57 -3 0 8 -37 25 -82 90 -246 105 -515
52 -928 -15 -120 -19 -138 -28 -129 -2 2 -16 99 -30 214 -31 246 -38 270 -56
205 -67 -250 -158 -449 -339 -743 -153 -249 -194 -353 -207 -528 -4 -49 -10
-89 -14 -89 -15 0 -71 122 -90 197 -11 43 -23 125 -27 183 l-6 105 -32 -95
c-53 -158 -158 -370 -223 -449 l-19 -25 -26 55 -27 54 6 -115 c3 -63 1 -163
-5 -221 -11 -110 -48 -279 -61 -279 -4 0 -11 12 -14 28 -34 141 -107 315 -180
424 -52 79 -70 96 -61 56 40 -188 30 -316 -38 -442 -18 -34 -125 -185 -238
-336 -113 -151 -223 -301 -244 -333 l-38 -57 -73 110 c-78 117 -256 355 -355
473 -83 99 -136 209 -151 315 -11 71 -10 98 6 188 27 165 14 156 -92 -56 -38
-75 -83 -185 -102 -247 -18 -62 -37 -113 -41 -113 -11 0 -35 67 -55 155 -15
64 -19 118 -18 264 l0 184 -25 -51 c-14 -29 -28 -52 -31 -52 -10 0 -111 169
-149 252 -22 45 -59 139 -83 208 l-43 125 -6 -130 c-3 -71 -14 -159 -23 -194
-20 -72 -71 -181 -86 -181 -6 0 -10 27 -10 60 0 158 -52 294 -220 575 -196
330 -244 432 -305 650 -43 156 -42 157 -75 -100 -29 -228 -31 -241 -40 -224
-15 26 -39 221 -50 398 -15 254 5 432 71 633 16 50 28 92 26 94 -1 2 -33 -25
-69 -59 -130 -122 -241 -274 -350 -482 l-58 -110 0 63 c0 134 48 298 149 502
36 74 67 138 69 142 2 3 -56 -9 -127 -27 -72 -18 -131 -30 -130 -26 0 3 34 33
75 66 102 81 258 245 322 338 29 42 50 77 45 77 -4 0 -52 -25 -106 -55 -54
-30 -97 -51 -95 -46 9 21 272 431 277 431 3 0 77 -32 164 -71z m3073 -424
c109 -167 165 -327 185 -530 12 -122 8 -169 -21 -226 -52 -101 -130 -151 -236
-151 -77 1 -123 14 -153 46 l-21 23 28 39 c43 58 57 67 125 73 l62 7 -52 27
c-50 26 -52 28 -41 52 12 27 19 30 92 40 27 4 61 11 75 17 25 10 22 12 -43 34
-38 13 -71 25 -73 27 -2 2 4 46 13 98 13 73 15 130 10 254 -3 88 -8 181 -12
208 -4 26 -4 47 0 47 4 0 31 -38 62 -85z m-2537 -540 c29 -89 62 -153 117
-233 24 -35 44 -67 44 -73 0 -6 -26 -22 -57 -37 -158 -73 -339 13 -374 177 -7
34 -9 86 -4 135 19 230 85 421 203 595 l37 54 6 -274 c5 -250 7 -280 28 -344z
m604 -23 c15 -43 27 -82 27 -88 0 -6 -31 -20 -68 -32 -78 -25 -82 -26 -82 -12
0 16 82 210 89 210 3 0 18 -35 34 -78z m1324 -29 c24 -54 39 -101 35 -105 -6
-6 -126 26 -141 38 -5 5 50 164 57 164 4 0 26 -44 49 -97z m-589 -193 c254
-20 455 -74 798 -216 267 -111 351 -129 459 -100 80 21 115 44 198 128 l78 78
-7 -37 c-36 -206 -192 -368 -389 -404 -115 -21 -228 6 -488 121 -271 118 -461
167 -692 177 -272 12 -510 -38 -823 -171 -238 -102 -414 -152 -496 -141 -133
18 -261 125 -341 287 -25 51 -49 114 -52 138 l-6 45 52 -64 c96 -120 185 -166
321 -166 101 1 121 7 412 126 308 126 503 180 725 198 54 5 103 9 108 10 6 0
70 -4 143 -9z"/>
<path d="M4434 7019 c-2 -5 15 -13 38 -19 24 -7 122 -34 218 -61 96 -27 189
-49 206 -49 27 0 389 94 454 118 51 19 -1 19 -145 0 -194 -25 -430 -25 -623 0
-79 10 -145 15 -148 11z"/>
<path d="M4735 6658 c129 -121 159 -148 167 -148 13 0 250 224 241 227 -8 3
-64 -15 -192 -62 -52 -19 -71 -16 -186 31 -47 19 -92 34 -101 34 -10 0 20 -34
71 -82z"/>
<path d="M5630 6704 c0 -3 25 -38 55 -79 29 -40 95 -131 146 -202 51 -70 103
-142 116 -160 l24 -31 -98 -46 c-53 -26 -195 -101 -314 -166 -119 -66 -225
-120 -236 -120 -11 0 -32 9 -46 20 -38 30 -130 172 -177 274 -23 47 -44 86
-47 86 -3 0 -3 -44 0 -97 6 -93 38 -249 73 -356 9 -27 14 -50 12 -52 -9 -10
-79 17 -107 41 -16 13 -50 56 -75 94 -26 39 -50 70 -54 70 -4 0 -23 -22 -42
-47 -77 -103 -130 -153 -162 -153 -35 0 -36 -16 10 161 39 147 64 362 39 328
-2 -2 -39 -68 -82 -146 -91 -166 -135 -223 -172 -223 -29 0 -56 13 -298 145
-99 54 -205 110 -235 124 -134 64 -157 89 -171 190 -19 143 -38 215 -53 200
-4 -4 -56 -250 -56 -265 0 -2 -37 -4 -82 -4 -99 0 -148 -19 -197 -75 -40 -46
-107 -183 -117 -239 l-7 -39 34 25 c75 57 119 73 199 72 58 -1 88 -7 130 -26
l55 -25 -105 -53 c-58 -29 -107 -54 -108 -55 -10 -9 67 -132 115 -185 128
-141 317 -221 488 -206 108 9 192 39 320 115 97 57 126 64 198 45 33 -8 72
-12 88 -9 16 4 64 32 106 64 43 31 84 61 91 65 8 5 37 -12 78 -44 115 -91 155
-101 267 -69 46 13 51 12 90 -10 204 -118 288 -150 407 -158 228 -14 448 116
570 338 l29 54 -111 56 -111 55 51 22 c109 47 223 37 325 -28 47 -29 48 -30
41 -8 -20 65 -73 156 -115 199 -53 55 -107 82 -200 100 -45 9 -73 21 -98 44
-20 17 -117 103 -216 191 -99 88 -193 170 -209 182 -27 20 -56 29 -56 16z
m398 -823 l33 -17 -32 -62 c-50 -102 -151 -162 -270 -162 -53 0 -145 30 -181
59 l-22 19 124 62 c264 133 277 137 348 101z m-1986 -62 c84 -44 162 -87 173
-95 20 -15 20 -15 -5 -34 -36 -27 -115 -50 -174 -50 -104 0 -197 54 -258 149
-36 58 -35 74 5 94 62 31 94 23 259 -64z"/>
<path d="M4398 5504 c-23 -25 -73 -66 -111 -91 -77 -51 -105 -84 -144 -168
-38 -85 -39 -196 -1 -276 47 -103 121 -163 254 -209 31 -11 59 -20 61 -20 1 0
-20 28 -48 63 -79 98 -112 173 -113 260 -1 130 50 191 156 184 47 -3 71 -12
150 -60 131 -79 180 -98 271 -104 105 -8 186 15 285 80 103 67 148 87 202 87
99 0 156 -78 148 -199 -6 -81 -29 -136 -96 -224 -76 -100 -69 -106 48 -47 111
56 157 96 197 173 25 47 28 62 28 152 0 89 -3 106 -28 156 -27 56 -73 104
-177 184 -28 22 -70 55 -92 73 l-41 32 -155 0 c-87 0 -152 -4 -146 -9 5 -4 52
-25 104 -45 52 -21 98 -41 103 -45 4 -4 -16 -20 -45 -36 -29 -16 -82 -47 -118
-70 -90 -57 -126 -70 -192 -69 -43 1 -72 8 -115 31 -85 43 -243 137 -243 143
0 3 48 23 108 45 129 47 121 53 -75 54 l-131 1 -44 -46z"/>
<path d="M4436 5059 c-19 -47 -21 -117 -4 -156 19 -44 75 -119 104 -138 l25
-16 -6 45 c-8 53 0 57 50 26 44 -27 58 -62 65 -160 l5 -85 230 0 230 0 5 85
c6 97 25 139 79 172 l33 21 -3 -46 c-2 -26 -1 -47 3 -47 11 0 106 121 124 159
9 19 16 51 16 72 -1 40 -29 99 -47 99 -16 0 -115 -48 -170 -82 -125 -79 -170
-134 -184 -227 l-6 -46 -90 0 -90 0 -5 55 c-11 109 -72 170 -267 268 l-81 41
-16 -40z"/>
<path d="M4777 3138 c-26 -24 -168 -194 -181 -216 -11 -18 12 -6 105 54 111
71 143 84 204 84 65 0 86 -9 214 -96 51 -35 98 -64 104 -64 6 0 -5 17 -25 38
-19 20 -49 58 -66 84 -41 60 -102 112 -151 126 -21 7 -70 12 -109 12 -60 0
-75 -4 -95 -22z"/>
</g>
</svg>
