<?xml version="1.0" encoding="utf-8"?>
<!-- Generator: Adobe Illustrator 27.5.0, SVG Export Plug-In . SVG Version: 6.00 Build 0)  -->
<svg version="1.1" id="Layer_1" xmlns="http://www.w3.org/2000/svg" xmlns:xlink="http://www.w3.org/1999/xlink" x="0px" y="0px"
	 viewBox="0 0 4000 4000" style="enable-background:new 0 0 4000 4000;" xml:space="preserve">
<g>
	<rect x="0" style="fill-rule:evenodd;clip-rule:evenodd;fill:#FFFFFF;" width="4000" height="4000"/>
	<path style="fill-rule:evenodd;clip-rule:evenodd;" d="M1451.427,1332.179c46.068-35.423,122.042-91.238,216.724-151.163h-0.005
		c0,0-205.62-121.095-307.252-226.87c-101.632-105.775-122.371-267.558-277.922-311.107c0,0,72.586,47.701,114.072,134.81
		c41.485,87.113,12.448,165.927,91.262,244.738c0,0-71.557-30.065-97.483-146.215c0,0-3.111,85.035,29.04,157.63
		c32.145,72.59,111.996,137.92,151.404,193.923c39.406,55.998,80.162,104.248,80.162,104.248V1332.179z M1720.809,2401.842
		c0,0,21.775,112.002,69.482,193.927l16.591-142.077C1806.883,2453.692,1745.698,2433.991,1720.809,2401.842z M1514.281,1683.174
		c0,0,20.74-3.109,71.552,41.48c50.817,44.593,96.445,136.89,192.888,154.522c0,0-93.33,22.813-158.665,8.297
		C1554.722,1872.949,1499.763,1783.766,1514.281,1683.174z M1939.446,2370.731c0,0-9.336-92.295-58.078-152.442
		c-48.742-60.152-88.147-80.886-123.406-65.333c-35.258,15.552-25.928,108.883,64.293,158.663c0,0-17.631-35.261-23.847-62.225
		c-6.223-26.961,35.258-24.888,73.625,33.19C1910.405,2340.656,1917.666,2346.877,1939.446,2370.731z M2548.567,1332.179
		c-46.067-35.423-122.04-91.238-216.721-151.163h0.003c0,0,205.621-121.095,307.253-226.87s122.373-267.558,277.921-311.107
		c0,0-72.584,47.701-114.07,134.81c-41.484,87.113-12.448,165.927-91.262,244.738c0,0,71.557-30.065,97.483-146.215
		c0,0,3.109,85.035-29.042,157.63c-32.143,72.59-111.997,137.92-151.402,193.923c-39.406,55.998-80.165,104.248-80.165,104.248
		V1332.179z M2279.188,2401.842c0,0-21.775,112.002-69.482,193.927l-16.594-142.077
		C2193.112,2453.692,2254.299,2433.991,2279.188,2401.842z M2485.713,1683.174c0,0-20.74-3.109-71.551,41.48
		c-50.815,44.593-96.443,136.89-192.886,154.522c0,0,93.33,22.813,158.663,8.297
		C2445.274,1872.949,2500.233,1783.766,2485.713,1683.174z M2060.551,2370.731c0,0,9.335-92.295,58.077-152.442
		c48.741-60.152,88.148-80.886,123.406-65.333c35.259,15.552,25.929,108.883-64.294,158.663c0,0,17.631-35.261,23.849-62.225
		c6.221-26.961-35.258-24.888-73.627,33.19C2089.592,2340.656,2082.331,2346.877,2060.551,2370.731z M1999.998,1003.931
		c-89.707,38.307-175.347,83.392-252.364,128.603l-0.005-0.008c-388.946-166.957-349.416-245.783-469.709-413.783
		c-120.293-168-354.667-174.221-354.667-174.221c109.928,76.738,197.042,176.295,209.485,342.221
		c12.445,165.927,114.072,263.405,157.63,327.7c43.555,64.293,112.101,156.595,112.101,156.595l-338.075-31.11
		c0,0,87.113,91.265,147.26,171.113c17.296,22.965,36.213,44.045,53.641,65.375c-0.246,0.095-197.981,74.732-332.711,259.205
		c0,0,75.854-44.493,244.738-33.183c0,0-184.589,128.593-259.257,452.145c0,0,91.927-58.578,261.33-124.447
		c0,0-105.778,174.232-93.33,400.3c0,0,49.777-118.215,176.292-236.438c0,0-99.558,286.223,64.293,557.925
		c0,0-13.909-200.967,97.483-342.221c0,0-41.481,240.59,161.778,489.476l43.556-89.183c0,0,41.474,128.593,149.328,273.78
		l24.889-136.885c0,0,178.998,331.846,196.313,408.585c17.315-76.739,196.312-408.585,196.312-408.585l24.889,136.885
		c107.853-145.187,149.33-273.78,149.33-273.78l43.554,89.183c203.258-248.886,161.778-489.476,161.778-489.476
		c111.392,141.255,97.483,342.221,97.483,342.221c163.852-271.701,64.295-557.925,64.295-557.925
		c126.515,118.223,176.292,236.438,176.292,236.438c12.448-226.068-93.332-400.3-93.332-400.3
		c169.403,65.868,261.331,124.447,261.331,124.447c-74.669-323.552-259.256-452.145-259.256-452.145
		c168.883-11.31,244.738,33.183,244.738,33.183c-134.731-184.473-332.467-259.11-332.712-259.205
		c17.429-21.33,36.345-42.41,53.641-65.375c60.146-79.848,147.26-171.113,147.26-171.113l-338.073,31.11
		c0,0,68.547-92.302,112.1-156.595c43.56-64.295,145.187-161.773,157.63-327.7c12.445-165.926,99.559-265.483,209.485-342.221
		c0,0-234.373,6.221-354.665,174.221c-120.293,168-80.765,246.826-469.711,413.783l-0.004,0.008
		C2175.344,1087.323,2089.705,1042.238,1999.998,1003.931z M1999.998,1757.858l-19.819,29.036l-211.555-214.663l187.715,246.808
		l-66.369,63.26c-72.59,37.332-159.703-85.04-257.182-188.741c-97.48-103.705-217.776-184.592-217.776-184.592l122.366,159.7
		c0,0-107.848-47.698-184.592-97.48c-76.739-49.775-174.213-161.772-174.213-161.772s311.122,35.258,392.012,68.441
		c80.887,33.188,194.962,176.297,194.962,176.297c-118.223-221.925-276.849-272.74-276.849-272.74
		c55.998-92.297,212.588-169.035,212.588-169.035c69.481,45.628,87.108,107.853,87.108,107.853
		c60.146,147.255,155.556,257.183,155.556,257.183c-95.405-263.41,56.046-454.225,56.046-454.225s151.451,190.815,56.046,454.225
		c0,0,95.408-109.928,155.554-257.183c0,0,17.627-62.225,87.108-107.853c0,0,156.592,76.738,212.591,169.035
		c0,0-158.626,50.815-276.85,272.74c0,0,114.076-143.108,194.962-176.297c80.892-33.183,392.012-68.441,392.012-68.441
		s-97.474,111.997-174.211,161.772c-76.744,49.781-184.592,97.48-184.592,97.48l122.366-159.7c0,0-120.298,80.886-217.776,184.592
		c-97.478,103.701-184.592,226.073-257.184,188.741l-66.369-63.26l187.716-246.808l-211.554,214.663L1999.998,1757.858z
		 M1999.998,2443.336c-98.357,0-177.492-17.632-251.12-88.148c-73.631-70.515-116.146-205.332-257.184-277.922
		c-141.033-72.592-190.81-141.038-190.81-141.038c18.667-43.558,55.999-153.481,55.999-153.481l50.812,113.036
		c-20.741-67.408-40.442-219.851-40.442-219.851c6.224,36.293,85.04,126.52,85.04,126.52
		c-28.002-79.857-13.484-136.89-13.484-136.89l36.297,16.597c-5.187,183.553,98.523,237.478,179.415,245.773
		c80.887,8.297,148.295-17.627,148.295-17.627l75.704,22.815c-19.705,32.15-85.035,114.07-85.035,114.07
		c-66.374,13.483-86.074,48.747-86.074,48.747c-46.668-71.555-90.221-97.483-161.778-125.485
		c-71.552-28.002-99.553-63.255-99.553-63.255c25.928,62.22,97.479,98.513,145.181,134.812
		c47.707,36.297,82.97,103.705,97.488,150.373c14.518,46.663,59.112,90.217,59.112,90.217
		c-17.631-28.002-57.038-97.478-22.813-151.403c34.219-53.923,88.146-36.297,106.814-24.893
		c18.667,11.41,104.739,69.483,104.739,69.483l-105.775-139.998l169.172-183.558l169.171,183.558l-105.775,139.998
		c0,0,86.075-58.073,104.74-69.483c18.667-11.403,72.596-29.03,106.814,24.893c34.223,53.925-5.183,123.402-22.815,151.403
		c0,0,44.595-43.553,59.114-90.217c14.516-46.668,49.78-114.077,97.486-150.373c47.703-36.298,119.256-72.592,145.181-134.812
		c0,0-28.001,35.253-99.552,63.255c-71.556,28.002-115.11,53.93-161.777,125.485c0,0-19.702-35.263-86.076-48.747
		c0,0-65.328-81.92-85.033-114.07l75.704-22.815c0,0,67.408,25.923,148.295,17.627c80.89-8.295,184.601-62.22,179.413-245.773
		l36.299-16.597c0,0,14.518,57.033-13.484,136.89c0,0,78.817-90.227,85.038-126.52c0,0-19.7,152.443-40.44,219.851l50.81-113.036
		c0,0,37.334,109.923,55.999,153.481c0,0-49.777,68.447-190.808,141.038c-141.039,72.59-183.554,207.406-257.184,277.922
		C2177.489,2425.704,2098.356,2443.336,1999.998,2443.336z M1999.998,2860.044c-114.878,2.073-169.271-27.998-178.602-73.63
		c-9.33-45.633-6.222-159.7-6.222-159.7s25.924,103.702,61.187,157.625c35.258,53.93,123.637,45.633,123.637,45.633
		s88.38,8.297,123.638-45.633c35.263-53.923,61.185-157.625,61.185-157.625s3.111,114.067-6.221,159.7
		C2169.269,2832.045,2114.877,2862.117,1999.998,2860.044z M1999.998,2945.239c0,0-176.571-8.297-238.795-107.85
		c-160.129-458.295-246.642-634.336-278.858-706.241c50.76,33.463,58.493,39.84,87.699,97.663
		c32.3,63.945,73.785,147.977,97.857,204.142c43.559,101.627,116.149,266.513,126.52,332.881
		c10.371,66.374,23.305,143.112,205.578,132.742c182.273,10.37,195.208-66.368,205.577-132.742
		c10.37-66.368,82.96-231.255,126.521-332.881c24.069-56.165,65.555-140.197,97.857-204.142
		c29.206-57.823,36.939-64.2,87.698-97.663c-32.215,71.905-118.729,247.947-278.858,706.241
		C2176.567,2936.942,1999.998,2945.239,1999.998,2945.239z M1294.799,1844.456c-33.098,26.722-132.867,109.903-195.288,190.28
		c0,0,98.717-68.287,178.764-55.492c3.296,3.013,6.693,6.052,10.19,9.113v0.003c50.045,59.292,98.971,126.203,144.468,197.897
		c-28.725,38.65-82.989,121.913-98.023,216.633c0,0,99.464-55.828,170.845-92.122c16.638,30.973,32.494,62.48,47.408,94.328
		c-6.798,51.575-20.588,172.025-19.157,291.263c0,0,45.085-34.479,102.605-77.31c18.633,60.299,32.843,120.345,41.632,178.933
		c12.448,82.96,54.476,211.553,321.755,213.628c267.28-2.075,309.308-130.668,321.756-213.628
		c8.787-58.588,22.999-118.635,41.632-178.933c57.52,42.832,102.605,77.31,102.605,77.31
		c1.429-119.238-12.361-239.688-19.159-291.263c14.915-31.848,30.77-63.355,47.41-94.328
		c71.381,36.293,170.844,92.122,170.844,92.122c-15.033-94.72-69.296-177.983-98.021-216.633
		c45.497-71.693,94.421-138.605,144.468-197.897v-0.003c3.495-3.062,6.892-6.1,10.19-9.113
		c80.045-12.795,178.762,55.492,178.762,55.492c-62.419-80.377-162.189-163.558-195.288-190.28
		c-8.777-19.677-17.324-43.46-24.718-72.08c-3.845-14.892-6.08-28.81-6.949-41.92l140.881-14.089l-124.385-72.945
		c5.42-11.527,11.902-22.502,19.11-33.16c101.528,44.305,228.681,153.811,228.681,153.811
		c-33.19-3.113-203.263,21.775-203.263,21.775c239.995,131.938,270.667,373.333,270.667,373.333
		c-129.633-66.374-255.115-82.962-255.115-82.962c58.078,114.072,108.885,269.627,108.885,269.627
		c-94.369-93.335-188.741-136.89-188.741-136.89c93.336,246.813,37.328,450.072,37.328,450.072
		c-60.147-138.958-188.74-248.887-188.74-248.887c82.965,248.887-95.415,517.478-95.415,517.478
		c-8.532-48.878-47.701-154.517-47.701-154.517c-29.038,143.112-135.85,325.63-135.85,325.63l-30.077-111.997
		c-75.698,54.963-209.796,304.885-209.796,304.885s-134.097-249.922-209.797-304.885l-30.075,111.997
		c0,0-106.815-182.518-135.85-325.63c0,0-39.17,105.638-47.703,154.517c0,0-178.38-268.592-95.413-517.478
		c0,0-128.595,109.928-188.74,248.887c0,0-56.009-203.258,37.326-450.072c0,0-94.37,43.555-188.74,136.89
		c0,0,50.807-155.555,108.884-269.627c0,0-125.48,16.588-255.114,82.962c0,0,30.672-241.395,270.667-373.333
		c0,0-170.075-24.888-203.263-21.775c0,0,127.152-109.507,228.679-153.811c7.21,10.658,13.692,21.633,19.11,33.16l-124.383,72.945
		l140.882,14.089c-0.871,13.11-3.106,27.028-6.95,41.92C1312.125,1800.996,1303.578,1824.779,1294.799,1844.456z"/>
</g>
</svg>
