<svg xmlns="http://www.w3.org/2000/svg" fill="none" viewBox="0 0 512 620"><defs><linearGradient id="a" x1="0" x2="0" y1="0" y2="1"><stop offset="0%" stop-color="#e8c87a"/><stop offset="50%" stop-color="#d4a853"/><stop offset="100%" stop-color="#b8903d"/></linearGradient><linearGradient id="d" x1="0" x2="0" y1="0" y2="1"><stop offset="0%" stop-color="#edcf82"/><stop offset="50%" stop-color="#d4a853"/><stop offset="100%" stop-color="#b89040"/></linearGradient><filter id="c" width="140%" height="140%" x="-20%" y="-20%"><feGaussianBlur in="SourceGraphic" result="blur" stdDeviation="5"/><feComposite in="SourceGraphic" in2="blur"/></filter></defs><g stroke="url(#a)" stroke-linejoin="round" filter="url(#c)" transform="matrix(.82 0 0 .82 46 10)"><g stroke-linecap="round"><path stroke-width="11" d="m256 110 123 75v150l-123 75-123-75V185z"/><path stroke-width="7" d="m256 194-80 132h160z" opacity=".55"/><path stroke-width="6" d="m256 110-80 216" opacity=".5"/><path stroke-width="6" d="m256 110 80 216" opacity=".5"/><path stroke-width="6" d="m256 410-80-84" opacity=".5"/><path stroke-width="6" d="m256 410 80-84" opacity=".5"/><path stroke-width="5" d="m133 185 123 9" opacity=".35"/><path stroke-width="5" d="m379 185-123 9" opacity=".35"/><path stroke-width="5" d="m133 185 43 141" opacity=".35"/><path stroke-width="5" d="m379 185-43 141" opacity=".35"/><path stroke-width="5" d="m133 335 43-9" opacity=".35"/><path stroke-width="5" d="m379 335-43-9" opacity=".35"/></g><path fill="url(#d)" stroke-width="2" d="M130 174 110 37l85 55 61-88 61 88 85-55-20 137-126-82Z"/></g><text x="256" y="555" fill="url(#a)" font-family="Cinzel, 'Times New Roman', serif" font-size="64" font-weight="700" letter-spacing="8" text-anchor="middle">POCKET DM</text></svg>